<?xml version="1.0" standalone="no"?>
<!DOCTYPE svg PUBLIC "-//W3C//DTD SVG 20010904//EN"
 "http://www.w3.org/TR/2001/REC-SVG-20010904/DTD/svg10.dtd">
<svg version="1.0" xmlns="http://www.w3.org/2000/svg"
 width="643.000000pt" height="643.000000pt" viewBox="0 0 643.000000 643.000000"
 preserveAspectRatio="xMidYMid meet">
<metadata>
Created by potrace 1.11, written by Peter Selinger 2001-2013
</metadata>
<g transform="translate(0.000000,643.000000) scale(0.100000,-0.100000)"
fill="#000000" stroke="none">
<path d="M1655 6409 c-55 -10 -118 -23 -140 -29 -22 -6 -49 -13 -59 -15 -75
-17 -226 -77 -343 -135 -255 -126 -446 -276 -645 -505 -145 -168 -279 -404
-358 -630 -28 -82 -58 -192 -66 -240 -3 -22 -7 -42 -9 -45 -2 -3 -6 -23 -9
-45 -3 -22 -10 -69 -15 -105 -10 -70 -10 -2891 1 -2925 3 -11 9 -42 13 -70 36
-256 162 -572 319 -805 43 -63 81 -117 85 -120 3 -3 19 -21 35 -40 128 -158
341 -339 522 -443 169 -98 380 -183 549 -222 17 -4 41 -10 55 -13 35 -10 3218
-9 3257 1 327 77 586 201 833 398 91 73 234 212 282 274 12 17 31 39 41 50 44
47 164 239 217 346 83 167 163 414 184 564 3 22 10 69 15 105 11 75 9 2891 -2
2930 -4 14 -9 45 -12 69 -3 24 -7 46 -9 50 -2 3 -7 23 -10 44 -10 63 -55 215
-92 310 -124 321 -342 619 -611 835 -176 142 -446 290 -618 339 -152 44 -199
56 -290 73 -95 18 -167 19 -1560 19 -1385 -1 -1465 -2 -1560 -20z"/>
</g>
</svg>
